<svg xmlns="http://www.w3.org/2000/svg" viewBox="0 0 1024 640">
  <rect width="100%" height="100%" fill="#0F3B38"/>
  <g transform="translate(256,40) scale(0.75)">
    
  <g id="icon" fill="#FFFFFF" stroke="none">
    <!-- Map pin -->
    <path d="M256,32 C158,32 80,110 80,208 C80,332 256,480 256,480 C256,480 432,332 432,208 C432,110 354,32 256,32 Z" />
    <!-- Inner circle to make a 'ring' effect -->
    <circle cx="256" cy="208" r="96" fill="#0F3B38"/>
    <circle cx="256" cy="208" r="86" fill="#FFFFFF"/>
    <!-- Ball seams -->
    <path d="M212,160
             C200,184 200,232 212,256
             C192,244 180,226 176,208
             C180,190 192,172 212,160 Z" fill="#0F3B38"/>
    <path d="M300,160
             C312,184 312,232 300,256
             C320,244 332,226 336,208
             C332,190 320,172 300,160 Z" fill="#0F3B38"/>
  </g>

  </g>
  <text x="512" y="520" fill="#FFFFFF" text-anchor="middle"
        font-family="Inter, system-ui, -apple-system, 'Segoe UI', Roboto, Arial, sans-serif"
        font-size="120" font-weight="700" letter-spacing="0.5">
    SportSpot
  </text>
</svg>